<svg xmlns="http://www.w3.org/2000/svg" width="22.068" height="19.8" viewBox="0 0 22.068 19.8">
  <g id="shapcar_1" data-name="shapcar 1" transform="translate(-2.739 -2.229)">
    <path id="Path_9" data-name="Path 9" d="M3.4,2.424a3.415,3.415,0,0,1,1.124-.088c.209.007.418.013.624,0A2.246,2.246,0,0,1,7.37,3.554c3.135.022,6.27.019,9.406.015q3.162,0,6.324,0a1.581,1.581,0,0,1,1.54,1.135,1.366,1.366,0,0,1,0,.83q-.556,2.106-1.123,4.207L23.1,11.3a2.8,2.8,0,0,1-2.2,2.062,4.824,4.824,0,0,1-.941.052c-.1,0-.2,0-.3,0H9.352c.053.379.113.757.193,1.132a.894.894,0,0,0,.877.71q2.485.009,4.969,0c2.043,0,4.086,0,6.128.009a.919.919,0,0,1,.889,1.1.965.965,0,0,1-1.037.74H17.461q-3.52,0-7.039,0a2.718,2.718,0,0,1-2.273-1.291,3.32,3.32,0,0,1-.434-1.271q-.389-2.023-.774-4.047Q6.405,7.683,5.864,4.872a3.169,3.169,0,0,0-.179-.682c-.312-.008-.624-.007-.935-.005s-.644,0-.966-.006a.971.971,0,0,1-.8-.41A.919.919,0,0,1,3.4,2.424Zm4.4,3c.222,1.06.425,2.125.628,3.189.189.988.377,1.976.581,2.961q3.48-.007,6.961,0H20.4a.9.9,0,0,0,.946-.747q.276-1.011.555-2.022c.31-1.127.62-2.253.922-3.381l-3.339,0Q13.638,5.412,7.8,5.423Z" fill="#3d6565"/>
    <path id="Path_10" data-name="Path 10" d="M3.4,2.424a3.415,3.415,0,0,1,1.124-.088c.209.007.418.013.624,0A2.246,2.246,0,0,1,7.37,3.554c3.135.022,6.27.019,9.406.015q3.162,0,6.324,0a1.581,1.581,0,0,1,1.54,1.135,1.366,1.366,0,0,1,0,.83q-.556,2.106-1.123,4.207L23.1,11.3a2.8,2.8,0,0,1-2.2,2.062,4.824,4.824,0,0,1-.941.052c-.1,0-.2,0-.3,0H9.352c.053.379.113.757.193,1.132a.894.894,0,0,0,.877.71q2.485.009,4.969,0c2.043,0,4.086,0,6.128.009a.919.919,0,0,1,.889,1.1.965.965,0,0,1-1.037.74H17.461q-3.52,0-7.039,0a2.718,2.718,0,0,1-2.273-1.291,3.32,3.32,0,0,1-.434-1.271q-.389-2.023-.774-4.047Q6.405,7.683,5.864,4.872a3.169,3.169,0,0,0-.179-.682c-.312-.008-.624-.007-.935-.005s-.644,0-.966-.006a.971.971,0,0,1-.8-.41A.919.919,0,0,1,3.4,2.424Zm4.4,3c.222,1.06.425,2.125.628,3.189.189.988.377,1.976.581,2.961q3.48-.007,6.961,0H20.4a.9.9,0,0,0,.946-.747q.276-1.011.555-2.022c.31-1.127.62-2.253.922-3.381l-3.339,0Q13.638,5.412,7.8,5.423Z" fill="none" stroke="#3071b9" stroke-width="0.2"/>
    <path id="Path_11" data-name="Path 11" d="M9.139,18.41a1.822,1.822,0,1,1-.264,3.466,1.862,1.862,0,0,1-.917-2.59A1.888,1.888,0,0,1,9.139,18.41Z" fill="#3d6565"/>
    <path id="Path_12" data-name="Path 12" d="M20.192,18.4a1.827,1.827,0,1,1-.087,3.541,1.846,1.846,0,0,1-1.166-2.464A1.776,1.776,0,0,1,20.192,18.4Z" fill="#3d6565"/>
  </g>
</svg>
