<svg id="ANASAYFA_ICON" data-name="ANASAYFA ICON" xmlns="http://www.w3.org/2000/svg" width="20.014" height="20" viewBox="0 0 20.014 20">
  <path id="ANASAYFA_ICON-2" data-name="ANASAYFA ICON" d="M4,15.016H6v7.005a1,1,0,0,0,1,1H19.012a1,1,0,0,0,1-1V15.016h2a1,1,0,0,0,.743-1.67L13.751,3.339a1.031,1.031,0,0,0-1.487,0L3.257,13.346A1,1,0,0,0,4,15.016ZM9.955,14.7a3.41,3.41,0,0,0,3.053,2.318,3.42,3.42,0,0,0,3.052-2.312l1.9.621a5.4,5.4,0,0,1-4.954,3.693c-3.705,0-4.9-3.542-4.954-3.692l1.9-.628Z" transform="translate(-3 -3.022)" fill="#292d32"/>
</svg>
