<svg xmlns="http://www.w3.org/2000/svg" width="20" height="16" viewBox="0 0 20 16"><defs><style>.a{fill:rgba(48,113,185,0.33);}</style></defs><g transform="translate(-6 -8)"><path class="a" d="M6,21a1,1,0,0,1,1-1h4a1,1,0,0,1,1,1v2a1,1,0,0,1-1,1H7a1,1,0,0,1-1-1Z"/><rect class="a" width="13" height="4" rx="1" transform="translate(13 20)"/><rect class="a" width="6" height="4" rx="1" transform="translate(6 14)"/><rect class="a" width="13" height="4" rx="1" transform="translate(13 14)"/><rect class="a" width="6" height="4" rx="1" transform="translate(6 8)"/><rect class="a" width="13" height="4" rx="1" transform="translate(13 8)"/></g></svg>