<svg xmlns="http://www.w3.org/2000/svg" width="20" height="20" viewBox="0 0 20 20"><defs><style>.a{fill:#3071b9;fill-rule:evenodd;}</style></defs><path class="a" d="M7,6A1,1,0,0,0,6,7V25a1,1,0,0,0,1,1H25a1,1,0,0,0,1-1V7a1,1,0,0,0-1-1Zm1,4a1,1,0,0,0-1,1v2a1,1,0,0,0,1,1h3.294a1,1,0,0,0,1-1V11a1,1,0,0,0-1-1Zm5.353,1a1,1,0,0,1,1-1h3.294a1,1,0,0,1,1,1v2a1,1,0,0,1-1,1H14.353a1,1,0,0,1-1-1Zm7.353-1a1,1,0,0,0-1,1v2a1,1,0,0,0,1,1H24a1,1,0,0,0,1-1V11a1,1,0,0,0-1-1ZM7,16a1,1,0,0,1,1-1h3.294a1,1,0,0,1,1,1v2a1,1,0,0,1-1,1H8a1,1,0,0,1-1-1Zm7.353-1a1,1,0,0,0-1,1v2a1,1,0,0,0,1,1h3.294a1,1,0,0,0,1-1V16a1,1,0,0,0-1-1Zm5.353,1a1,1,0,0,1,1-1H24a1,1,0,0,1,1,1v2a1,1,0,0,1-1,1H20.706a1,1,0,0,1-1-1ZM8,20a1,1,0,0,0-1,1v2a1,1,0,0,0,1,1h3.294a1,1,0,0,0,1-1V21a1,1,0,0,0-1-1Zm5.353,1a1,1,0,0,1,1-1h3.294a1,1,0,0,1,1,1v2a1,1,0,0,1-1,1H14.353a1,1,0,0,1-1-1Zm7.353-1a1,1,0,0,0-1,1v2a1,1,0,0,0,1,1H24a1,1,0,0,0,1-1V21a1,1,0,0,0-1-1Z" transform="translate(-6 -6)"/></svg>